<svg width="610" height="588" viewBox="0 0 610 588" fill="none" xmlns="http://www.w3.org/2000/svg">
<path d="M287.348 51.02C309.513 49.4297 331.998 50.7808 354.196 55.236L117.27 465.604C102.312 448.607 89.8998 429.81 80.1947 409.82L287.348 51.02Z" fill="url(#paint0_linear_872_467)"/>
<path d="M161.354 136.009C135.205 152.713 148.396 171.692 131.809 200.42C103.835 248.872 98.4393 304.164 112.357 354.113L80.1947 409.82C45.185 337.708 45.409 250.07 88.5081 175.42C104.751 147.286 118.048 142.086 142.05 123.064L161.354 136.009Z" fill="url(#paint1_linear_872_467)"/>
<path d="M163.534 112.504C178.869 121.357 179.47 143.652 166.684 155.902C153.322 168.703 141.527 183.588 131.809 200.42C105.943 245.221 99.3808 295.87 109.541 342.735C111.129 350.063 110.244 357.772 106.495 364.265C95.3046 383.648 67.7036 382.171 62.3272 360.445C47.3444 299.9 54.8593 233.701 88.5081 175.42C101.924 152.184 118.506 131.915 137.396 114.846C144.581 108.353 155.147 107.662 163.534 112.504Z" fill="url(#paint2_linear_872_467)"/>
<path d="M529.718 190.552L322.565 549.352C300.4 550.943 277.915 549.592 255.717 545.136L492.643 134.768C507.601 151.765 520.013 170.562 529.718 190.552Z" fill="url(#paint3_linear_872_467)"/>
<path d="M429.898 83.446C415.549 75.1617 397.202 80.0779 388.917 94.4267L154.808 499.916C162.738 505.852 171.106 511.382 179.898 516.459C188.691 521.535 197.663 526.017 206.77 529.916L440.879 124.427C449.163 110.078 444.247 91.7302 429.898 83.446Z" fill="url(#paint4_linear_872_467)"/>
<path d="M481.879 53.4126C473.594 67.7614 455.247 72.6776 440.898 64.3933C426.549 56.1091 421.633 37.7614 429.917 23.4126C438.201 9.0638 456.549 4.14755 470.898 12.4318C485.247 20.7161 490.163 39.0638 481.879 53.4126Z" fill="url(#paint5_linear_872_467)"/>
<path d="M453.958 454.135C476.223 438.096 463.493 425.258 478.103 399.952C506.077 351.5 511.473 296.208 497.556 246.259L529.718 190.552C564.728 262.664 564.503 350.303 521.404 424.952C507.043 449.826 487.19 458.834 466.626 476.623L453.958 454.135Z" fill="url(#paint6_linear_872_467)"/>
<path d="M453.818 480.617C438.853 471.977 437.727 450.548 449.644 438.036C460.385 426.758 469.971 414.037 478.103 399.952C503.969 355.151 510.531 304.503 500.371 257.637C498.783 250.309 499.668 242.6 503.417 236.107C514.608 216.724 542.209 218.201 547.585 239.927C562.568 300.473 555.053 366.671 521.404 424.952C510.014 444.68 496.342 462.268 480.913 477.576C473.713 484.718 462.6 485.688 453.818 480.617Z" fill="url(#paint7_linear_872_467)"/>
<path d="M453.818 480.617C438.853 471.977 437.727 450.548 449.644 438.036C460.385 426.758 469.971 414.037 478.103 399.952C503.969 355.151 510.531 304.503 500.371 257.637C498.783 250.309 499.668 242.6 503.417 236.107C514.608 216.724 542.209 218.201 547.585 239.927C562.568 300.473 555.053 366.671 521.404 424.952C510.014 444.68 496.342 462.268 480.913 477.576C473.713 484.718 462.6 485.688 453.818 480.617Z" fill="url(#paint8_linear_872_467)"/>
<defs>
<linearGradient id="paint0_linear_872_467" x1="174.332" y1="81.3025" x2="266.585" y2="425.595" gradientUnits="userSpaceOnUse">
<stop stop-color="#1C66D4"/>
<stop offset="1" stop-color="#1C66D4"/>
</linearGradient>
<linearGradient id="paint1_linear_872_467" x1="174.332" y1="81.3025" x2="266.585" y2="425.595" gradientUnits="userSpaceOnUse">
<stop stop-color="#1C66D4"/>
<stop offset="1" stop-color="#1C66D4"/>
</linearGradient>
<linearGradient id="paint2_linear_872_467" x1="174.332" y1="81.3025" x2="266.585" y2="425.595" gradientUnits="userSpaceOnUse">
<stop stop-color="#1C66D4"/>
<stop offset="1" stop-color="#1C66D4"/>
</linearGradient>
<linearGradient id="paint3_linear_872_467" x1="267.591" y1="57.8109" x2="394.159" y2="530.169" gradientUnits="userSpaceOnUse">
<stop stop-color="#1C66D4"/>
<stop offset="1" stop-color="#1C66D4"/>
</linearGradient>
<linearGradient id="paint4_linear_872_467" x1="267.591" y1="57.8109" x2="394.159" y2="530.169" gradientUnits="userSpaceOnUse">
<stop stop-color="#1C66D4"/>
<stop offset="1" stop-color="#1C66D4"/>
</linearGradient>
<linearGradient id="paint5_linear_872_467" x1="267.591" y1="57.8109" x2="394.159" y2="530.169" gradientUnits="userSpaceOnUse">
<stop stop-color="#1C66D4"/>
<stop offset="1" stop-color="#1C66D4"/>
</linearGradient>
<linearGradient id="paint6_linear_872_467" x1="267.591" y1="57.8109" x2="394.159" y2="530.169" gradientUnits="userSpaceOnUse">
<stop stop-color="#1C66D4"/>
<stop offset="1" stop-color="#1C66D4"/>
</linearGradient>
<linearGradient id="paint7_linear_872_467" x1="267.591" y1="57.8109" x2="394.159" y2="530.169" gradientUnits="userSpaceOnUse">
<stop stop-color="#1C66D4"/>
<stop offset="1" stop-color="#1C66D4"/>
</linearGradient>
<linearGradient id="paint8_linear_872_467" x1="267.591" y1="57.8109" x2="394.159" y2="530.169" gradientUnits="userSpaceOnUse">
<stop stop-color="#1C66D4"/>
<stop offset="1" stop-color="#1C66D4"/>
</linearGradient>
</defs>
</svg>
