<svg width="31" height="30" viewBox="0 0 31 30" fill="none" xmlns="http://www.w3.org/2000/svg">
<path d="M30.1875 15C30.1875 23.2843 23.4298 30 15.0938 30C6.75771 30 0 23.2843 0 15C0 6.71574 6.75771 0 15.0938 0C23.4298 0 30.1875 6.71574 30.1875 15ZM5.18403 15C5.18403 20.439 9.62076 24.8482 15.0938 24.8482C20.5667 24.8482 25.0035 20.439 25.0035 15C25.0035 9.561 20.5667 5.15184 15.0938 5.15184C9.62076 5.15184 5.18403 9.561 5.18403 15Z" fill="#17A2B8"/>
<path d="M15.0941 21C18.4286 21 21.1316 18.3137 21.1316 15C21.1316 11.6863 18.4286 9 15.0941 9C11.7597 9 9.05664 11.6863 9.05664 15C9.05664 18.3137 11.7597 21 15.0941 21Z" fill="#17A2B8"/>
<path d="M12.6789 11.3996C8.57339 9.71961 3.01889 11.0996 0.905762 11.9996C0.905762 11.0996 4.83014 0.599609 14.792 0.599609C22.7615 0.599609 26.9677 5.99961 28.0745 8.69961C25.0558 14.6996 17.8108 13.4996 12.6789 11.3996Z" fill="url(#paint0_linear_2573_13322)"/>
<defs>
<linearGradient id="paint0_linear_2573_13322" x1="14.6411" y1="0.599609" x2="14.6411" y2="13.1138" gradientUnits="userSpaceOnUse">
<stop stop-color="white"/>
<stop offset="0.816902" stop-color="white" stop-opacity="0.12"/>
</linearGradient>
</defs>
</svg>
