<svg width="246" height="56" viewBox="0 0 246 56" fill="none" xmlns="http://www.w3.org/2000/svg">
<path d="M10.1458 12.1844C7.6519 13.7775 8.91 15.5876 7.32811 18.3275C4.66015 22.9485 4.1455 28.2218 5.47284 32.9857L2.40545 38.2985C-0.933498 31.4209 -0.91214 23.0627 3.19833 15.9432C4.74749 13.2599 6.01566 12.764 8.30479 10.9498L10.1458 12.1844Z" fill="#1C66D4"/>
<path d="M10.3538 9.94274C11.8163 10.7871 11.8737 12.9135 10.6542 14.0818C9.3799 15.3027 8.25497 16.7223 7.32815 18.3276C4.86124 22.6004 4.23534 27.4309 5.20432 31.9005C5.35582 32.5995 5.27142 33.3346 4.91386 33.9541C3.84657 35.8025 1.21419 35.6617 0.701418 33.5896C-0.727542 27.8152 -0.0108088 21.5017 3.19837 15.9432C4.47787 13.7271 6.05939 11.7941 7.86094 10.1661C8.54618 9.54692 9.55396 9.48094 10.3538 9.94274Z" fill="#1C66D4"/>
<path d="M65.0636 4.89813C66.1486 4.89813 67.0338 3.95589 67.0338 2.89943C67.0338 1.84299 66.1486 0.929295 65.0636 0.929295C63.9501 0.929295 63.0649 1.84299 63.0649 2.89943C63.0649 3.95589 63.9501 4.89813 65.0636 4.89813ZM63.2933 21.8871H66.7768V7.12526H63.2933V21.8871ZM70.9979 21.8871H74.567V8.78132L81.0199 20.745L87.5014 8.78132V21.8871H91.042V2.27127H87.5014L81.0199 14.2349L74.567 2.27127H70.9979V21.8871ZM102.643 22.2012C107.325 22.2012 110.009 19.7171 110.009 16.2051C110.009 12.636 107.268 11.3225 103.185 10.4088C100.073 9.69501 98.6166 9.12396 98.6166 7.525C98.6166 6.15446 99.9586 4.95524 101.929 4.95524C103.87 4.95524 105.841 5.78327 107.554 7.26802L109.495 4.64116C107.525 2.95654 105.184 1.90009 102.072 1.90009C97.9314 1.90009 95.019 4.41273 95.019 7.83908C95.019 11.5224 97.8457 12.6931 101.9 13.6353C105.041 14.3777 106.44 14.9202 106.44 16.5477C106.44 17.9468 105.184 19.146 102.757 19.146C100.187 19.146 98.1027 18.1181 96.3038 16.4906L94.248 19.0318C96.418 21.0591 99.2733 22.2012 102.643 22.2012ZM68.6898 50.4399H72.2304V34.0791H78.512V30.8241H62.4082V34.0791H68.6898V50.4399ZM88.3269 47.6988C86.214 47.6988 84.6722 46.2712 84.2439 44.2439H95.3795C95.3795 38.7903 92.7241 35.3354 88.1556 35.3354C83.9584 35.3354 80.6462 38.5905 80.6462 43.0162C80.6462 47.5561 84.1297 50.7825 88.3555 50.7825C90.497 50.7825 93.0667 49.8688 94.3516 48.4983L92.153 46.2141C91.325 47.0707 89.6975 47.6988 88.3269 47.6988ZM88.2984 38.4191C90.3828 38.4191 91.6391 39.7326 92.0388 41.5885H84.2724C84.7864 39.6469 86.3568 38.4191 88.2984 38.4191ZM105.509 50.7825C107.85 50.7825 109.82 49.8117 111.248 48.2984L108.906 46.2712C108.078 47.2134 106.822 47.813 105.537 47.813C103.11 47.813 101.083 45.643 101.083 43.0447C101.083 40.4749 103.11 38.3049 105.537 38.3049C106.793 38.3049 108.021 38.9045 108.821 39.7897L111.162 37.7339C109.763 36.2777 107.793 35.3354 105.566 35.3354C101.254 35.3354 97.6279 38.8474 97.6279 43.0447C97.6279 47.242 101.254 50.7825 105.509 50.7825ZM122.038 35.3354C120.068 35.3354 118.326 36.2777 117.441 37.7053V30.4814H113.957V50.4399H117.441V41.5029C117.441 39.7326 119.068 38.3049 121.038 38.3049C122.866 38.3049 124.151 39.7326 124.151 41.7313V50.4399H127.52V41.046C127.52 37.7053 125.264 35.3354 122.038 35.3354ZM139.353 35.3354C137.412 35.3354 135.699 36.2777 134.785 37.6482V35.6781H131.302V50.4399H134.785V41.1031C135.013 39.5327 136.527 38.3049 138.354 38.3049C140.181 38.3049 141.466 39.7326 141.466 41.7313V50.4399H144.836V41.046C144.836 37.7053 142.58 35.3354 139.353 35.3354ZM155.756 50.7825C160.039 50.7825 163.665 47.242 163.665 43.0447C163.665 38.8474 160.039 35.3354 155.756 35.3354C151.473 35.3354 147.847 38.8474 147.847 43.0447C147.847 47.242 151.473 50.7825 155.756 50.7825ZM155.756 47.813C153.3 47.813 151.244 45.643 151.244 43.0447C151.244 40.4749 153.3 38.3049 155.756 38.3049C158.183 38.3049 160.239 40.4749 160.239 43.0447C160.239 45.643 158.183 47.813 155.756 47.813ZM166.686 50.4399H170.17V30.4814H166.686V50.4399ZM181.158 50.7825C185.441 50.7825 189.067 47.242 189.067 43.0447C189.067 38.8474 185.441 35.3354 181.158 35.3354C176.875 35.3354 173.249 38.8474 173.249 43.0447C173.249 47.242 176.875 50.7825 181.158 50.7825ZM181.158 47.813C178.702 47.813 176.646 45.643 176.646 43.0447C176.646 40.4749 178.702 38.3049 181.158 38.3049C183.585 38.3049 185.64 40.4749 185.64 43.0447C185.64 45.643 183.585 47.813 181.158 47.813ZM203.081 35.6781V37.8766C202.025 36.3062 200.111 35.3354 198.027 35.3354C194.201 35.3354 191.374 38.2193 191.374 42.3309C191.374 46.4425 194.201 49.3549 198.027 49.3549C200.14 49.3549 201.91 48.4126 203.081 46.8422V48.7553C203.081 50.9824 201.254 52.3815 198.341 52.3815C196.599 52.3815 194.829 51.7819 193.801 50.8396L192.516 53.3808C193.973 54.523 196.314 55.351 198.855 55.351C203.367 55.351 206.564 52.667 206.564 48.8695V35.6781H203.081ZM199.026 46.3854C196.685 46.3854 195.001 44.7008 195.001 42.3309C195.001 39.9895 196.685 38.3049 199.026 38.3049C201.396 38.3049 203.081 39.9895 203.081 42.3309C203.081 44.7008 201.396 46.3854 199.026 46.3854ZM212.234 33.4509C213.319 33.4509 214.204 32.5087 214.204 31.4522C214.204 30.3958 213.319 29.4821 212.234 29.4821C211.12 29.4821 210.235 30.3958 210.235 31.4522C210.235 32.5087 211.12 33.4509 212.234 33.4509ZM210.463 50.4399H213.947V35.6781H210.463V50.4399ZM224.678 47.6988C222.565 47.6988 221.023 46.2712 220.595 44.2439H231.731C231.731 38.7903 229.075 35.3354 224.507 35.3354C220.31 35.3354 216.997 38.5905 216.997 43.0162C216.997 47.5561 220.481 50.7825 224.707 50.7825C226.848 50.7825 229.418 49.8688 230.703 48.4983L228.504 46.2141C227.676 47.0707 226.049 47.6988 224.678 47.6988ZM224.65 38.4191C226.734 38.4191 227.99 39.7326 228.39 41.5885H220.624C221.138 39.6469 222.708 38.4191 224.65 38.4191ZM240.204 50.7825C243.659 50.7825 246 48.9552 246 46.1284C246 43.0447 243.316 42.1881 240.832 41.5029C238.576 40.8461 237.805 40.5606 237.805 39.6184C237.805 38.7903 238.747 38.3049 239.975 38.3049C241.26 38.3049 242.773 38.7618 244.173 39.6469L245.629 37.1057C244.03 36.0493 242.002 35.3354 239.975 35.3354C236.692 35.3354 234.407 37.2199 234.407 39.9895C234.436 42.6164 236.463 43.5301 239.661 44.3581C241.346 44.815 242.631 45.1862 242.631 46.3283C242.631 47.242 241.66 47.8416 240.261 47.8416C238.405 47.8416 236.749 47.1563 235.321 46.1284L233.751 48.5554C235.521 49.9831 237.948 50.7825 240.204 50.7825Z" fill="black"/>
<path d="M22.1621 4.07875C24.2761 3.92709 26.4203 4.05594 28.5374 4.48084L5.94124 43.6188C4.51472 41.9977 3.33089 40.205 2.40527 38.2984L22.1621 4.07875Z" fill="#1C66D4"/>
<path d="M45.2779 17.3863L25.521 51.6061C23.407 51.7578 21.2626 51.6288 19.1455 51.2038L41.7419 12.066C43.1684 13.687 44.3522 15.4798 45.2779 17.3863Z" fill="#1C66D4"/>
<path d="M35.7577 7.17116C34.3892 6.38109 32.6393 6.84997 31.8491 8.21844L9.52148 46.8912C10.2778 47.4572 11.0758 47.9846 11.9144 48.4689C12.7529 48.9529 13.6087 49.3803 14.4772 49.7524L36.8049 11.0796C37.5949 9.71114 37.126 7.96126 35.7577 7.17116Z" fill="#1C66D4"/>
<path d="M40.715 4.30681C39.925 5.67531 38.1752 6.14416 36.8066 5.35409C35.438 4.56399 34.9691 2.81412 35.7594 1.44563C36.5494 0.0771436 38.2995 -0.391734 39.6678 0.398361C41.0364 1.18845 41.5052 2.93832 40.715 4.30681Z" fill="#1C66D4"/>
<path d="M38.0522 42.5248C40.1755 40.9953 38.9615 39.7709 40.355 37.3573C43.023 32.7363 43.5375 27.4629 42.2103 22.6991L45.2778 17.3862C48.6165 24.2638 48.5953 32.622 44.4848 39.7415C43.1151 42.1139 41.2216 42.973 39.2604 44.6697L38.0522 42.5248Z" fill="#1C66D4"/>
<path d="M38.039 45.0505C36.6116 44.2266 36.5044 42.1829 37.6409 40.9895C38.6655 39.914 39.5797 38.7005 40.3551 37.3574C42.8221 33.0846 43.4478 28.2541 42.4789 23.7844C42.3275 23.0855 42.4118 22.3503 42.7695 21.731C43.8366 19.8824 46.4691 20.0233 46.9819 22.0953C48.4107 27.8698 47.694 34.1833 44.4849 39.7416C43.3985 41.6233 42.0946 43.3006 40.623 44.7605C39.9363 45.4418 38.8765 45.5342 38.039 45.0505Z" fill="#1C66D4"/>
<path d="M38.039 45.0505C36.6116 44.2266 36.5044 42.1829 37.6409 40.9895C38.6655 39.914 39.5797 38.7005 40.3551 37.3574C42.8221 33.0846 43.4478 28.2541 42.4789 23.7844C42.3275 23.0855 42.4118 22.3503 42.7695 21.731C43.8366 19.8824 46.4691 20.0233 46.9819 22.0953C48.4107 27.8698 47.694 34.1833 44.4849 39.7416C43.3985 41.6233 42.0946 43.3006 40.623 44.7605C39.9363 45.4418 38.8765 45.5342 38.039 45.0505Z" fill="#1C66D4"/>
</svg>
