<svg width="185" height="30" viewBox="0 0 185 30" fill="none" xmlns="http://www.w3.org/2000/svg">
<path d="M30.1875 15C30.1875 23.2843 23.4298 30 15.0938 30C6.75771 30 0 23.2843 0 15C0 6.71574 6.75771 0 15.0938 0C23.4298 0 30.1875 6.71574 30.1875 15ZM5.18403 15C5.18403 20.439 9.62076 24.8482 15.0938 24.8482C20.5667 24.8482 25.0035 20.439 25.0035 15C25.0035 9.561 20.5667 5.15184 15.0938 5.15184C9.62076 5.15184 5.18403 9.561 5.18403 15Z" fill="#17A2B8"/>
<path d="M15.0941 21C18.4286 21 21.1316 18.3137 21.1316 15C21.1316 11.6863 18.4286 9 15.0941 9C11.7597 9 9.05664 11.6863 9.05664 15C9.05664 18.3137 11.7597 21 15.0941 21Z" fill="#17A2B8"/>
<path d="M12.6789 11.3996C8.57339 9.71961 3.01889 11.0996 0.905762 11.9996C0.905762 11.0996 4.83014 0.599609 14.792 0.599609C22.7615 0.599609 26.9677 5.99961 28.0745 8.69961C25.0558 14.6996 17.8108 13.4996 12.6789 11.3996Z" fill="url(#paint0_linear_2573_13321)"/>
<path d="M43.3435 14.9895C39.5889 14.9895 36.5269 11.9827 36.5269 8.2514C36.5269 4.44765 39.6071 1.45898 43.3982 1.45898C47.0981 1.45898 50.1784 4.46576 50.1784 8.14272C50.1784 11.9284 47.1528 14.9895 43.3435 14.9895ZM43.3435 12.5261C45.7676 12.5261 47.6267 10.5518 47.6267 8.16083C47.6267 5.84236 45.7129 3.92237 43.3799 3.92237C41.0105 3.92237 39.0785 5.80613 39.0785 8.17895C39.0785 10.5699 40.9376 12.5261 43.3435 12.5261ZM54.4483 1.78502V12.6529H55.7059V14.7178H50.8759V12.6529H52.2247V3.84991H50.967V1.78502H54.4483ZM64.5789 14.7178V13.2687C63.8498 14.3555 62.6828 14.8627 61.3887 14.8627C58.6733 14.8627 56.4314 12.5623 56.4314 9.88158C56.4314 7.18273 58.6186 4.88236 61.371 4.88236C62.6098 4.88236 63.8134 5.46198 64.5789 6.4582V3.84991H63.303V1.78502H66.8025V12.6529H68.0601V14.7178H64.5789ZM61.6803 12.834C63.3395 12.834 64.633 11.4755 64.633 9.84535C64.633 8.2514 63.303 6.94726 61.7168 6.94726C60.0584 6.94726 58.7462 8.26951 58.7462 9.91781C58.7462 11.5118 60.0585 12.834 61.6803 12.834ZM72.218 1.78502V6.49443C72.8377 5.40764 73.8766 4.82802 75.1347 4.82802C76.2642 4.82802 77.2302 5.3533 77.8869 6.24085C78.6154 7.21895 78.6883 8.16084 78.6883 9.32007V12.6529H79.9465V14.7178H75.2071V12.6529H76.4647V9.91781C76.4647 9.2114 76.5199 8.50498 76.1366 7.88914C75.7356 7.27329 75.0795 7.0016 74.3687 7.0016C73.7125 7.0016 73.0928 7.27329 72.6918 7.78046C72.1997 8.37819 72.218 8.99404 72.218 9.71856V12.6529H73.4756V14.7178H68.7367V12.6529H69.9944V3.84991H68.7367V1.78502H72.218ZM88.6154 14.7178V13.4136C87.9045 14.4823 86.7563 14.9714 85.4805 14.9714C82.6918 14.9714 80.4864 12.671 80.4864 9.93592C80.4864 7.12839 82.7465 4.7918 85.5898 4.7918C86.8474 4.7918 87.941 5.37142 88.6154 6.42198V5.04538H92.0966V7.11027H90.8754V12.6529H92.0966V14.7178H88.6154ZM85.6809 12.8159C87.3578 12.8159 88.6518 11.4755 88.6518 9.82724C88.6518 8.23329 87.3213 6.94726 85.7174 6.94726C84.0588 6.94726 82.783 8.30574 82.783 9.93592C82.783 11.5118 84.1135 12.8159 85.6809 12.8159ZM94.1044 12.6529V7.11027H92.8467V5.04538H96.1275V6.49443C96.7472 5.48009 97.6949 4.80991 98.9343 4.80991C100.283 4.80991 101.413 5.625 101.96 6.83858C102.488 5.60689 103.801 4.80991 105.149 4.80991C106.207 4.80991 107.246 5.24462 107.956 6.0416C108.722 6.92914 108.722 7.88914 108.722 8.99404V12.6529H109.979V14.7178H105.241V12.6529H106.498V9.53743C106.498 8.90347 106.498 8.34197 106.207 7.78046C105.842 7.25518 105.241 6.98348 104.621 6.98348C104.019 6.98348 103.363 7.23707 102.981 7.70801C102.525 8.28763 102.525 8.83102 102.525 9.53743V12.6529H103.783V14.7178H99.0437V12.6529H100.301V9.68234C100.301 9.10272 100.301 8.37819 100.01 7.87103C99.6998 7.29141 99.0619 6.98348 98.4058 6.98348C97.7861 6.98348 97.2575 7.20084 96.8565 7.68989C96.3644 8.28763 96.328 8.92159 96.328 9.66422V12.6529H97.5856V14.7178H92.8467V12.6529H94.1044ZM121.08 2.98049V13.5223H122.739V14.7178H118.11V13.5223H119.768V2.98049H116.943V5.24462H115.813V1.78502H125.036V5.24462H123.906V2.98049H121.08ZM128.655 5.2084V7.1465C129.093 5.82424 130.35 5.26274 131.717 5.2084V6.33141C129.603 6.51254 128.655 7.74423 128.655 9.7729V13.5948H130.259V14.7178H125.848V13.5948H127.452V6.33141H125.848V5.2084H128.655ZM141.256 14.7178V12.7435C140.418 14.1744 139.015 14.9714 137.356 14.9714C135.606 14.9714 134.002 14.12 133.164 12.7435C132.69 11.9646 132.362 11.0589 132.398 10.0084C132.398 8.63178 132.799 7.99782 133.2 7.29141C133.984 5.91481 135.606 5.04538 137.338 5.04538C139.069 5.04538 140.382 5.84236 141.256 7.29141V5.2084H144.045V6.33141H142.459V13.5948H144.045V14.7178H141.256ZM137.465 6.22273C135.351 6.22273 133.601 7.92536 133.601 10.0265C133.601 12.0733 135.315 13.8121 137.411 13.8121C139.58 13.8121 141.275 12.1095 141.275 9.99026C141.275 7.90725 139.561 6.22273 137.465 6.22273ZM153.289 14.7178V12.7072C152.468 14.12 151.029 14.9714 149.37 14.9714C147.857 14.9714 146.107 14.0295 145.269 12.7072C144.777 11.9284 144.431 10.914 144.431 9.97215C144.431 7.32763 146.654 5.04538 149.315 5.04538C150.974 5.04538 152.523 5.91481 153.289 7.40008V2.90803H151.685V1.78502H154.492V13.5948H156.095V14.7178H153.289ZM149.498 13.8484C151.648 13.8484 153.325 12.1095 153.325 9.97215C153.325 7.87102 151.594 6.18651 149.498 6.18651C147.347 6.18651 145.634 7.92536 145.634 10.0446C145.634 12.1457 147.402 13.8484 149.498 13.8484ZM159.324 5.2084V13.5948H160.928V14.7178H156.481V13.5948H158.121V6.33141H156.518V5.2084H159.324ZM159.324 1.78502V3.65067H158.121V1.78502H159.324ZM164.022 5.2084V6.8748C164.624 5.69745 165.918 5.04538 167.23 5.04538C168.305 5.04538 169.909 5.625 170.529 6.8748C170.766 7.34575 171.058 8.19706 171.058 9.3563V13.5948H172.661V14.7178H168.251V13.5948H169.855V9.79101C169.855 8.9397 169.836 8.12461 169.399 7.38197C168.889 6.49443 167.813 6.22273 166.902 6.22273C166.064 6.22273 165.207 6.58499 164.66 7.21895C164.04 7.94348 164.022 8.75857 164.022 9.64611V13.5948H165.626V14.7178H161.215V13.5948H162.819V6.33141H161.215V5.2084H164.022ZM173.867 15.7502H175.252C175.836 16.9276 177.093 17.6159 178.406 17.6159C179.39 17.6159 180.392 17.1631 181.048 16.4566C181.869 15.6053 182.033 14.7902 182.033 13.6491V12.6348C181.285 14.1019 179.827 14.9714 178.132 14.9714C176.765 14.9714 174.724 14.1563 173.922 12.6348C173.594 12.0189 173.211 11.0589 173.211 9.99026C173.211 8.84913 173.594 7.85291 174.031 7.23707C174.997 5.87858 176.547 5.04538 178.205 5.04538C179.845 5.04538 181.322 5.8967 182.033 7.23707V5.2084H184.839V6.33141H183.236V13.4136C183.236 14.8627 183.072 15.9676 182.051 17.0725C181.085 18.123 179.736 18.6483 178.333 18.6483C176.437 18.6483 174.505 17.634 173.867 15.7502ZM178.296 13.8484C180.429 13.8484 182.124 12.0914 182.124 9.99026C182.124 7.88914 180.41 6.15028 178.278 6.15028C176.146 6.15028 174.414 7.90725 174.414 10.0265C174.414 12.1276 176.182 13.8484 178.296 13.8484Z" fill="#152536"/>
<path d="M43.6269 24.1088L42.2086 28.04H41.6191L40.6195 24.9579L39.4832 28.04H38.9023L37.5438 24.1088H36.792V23.5824H38.8254V24.1088H38.1162L39.244 27.3098L40.3974 24.0154H40.8673L41.9181 27.2673L43.063 24.1088H42.3368V23.5824H44.3787V24.1088H43.6269ZM46.8853 28.1588C45.5867 28.1588 44.5358 27.1145 44.5358 25.8409C44.5358 24.5419 45.5952 23.506 46.9024 23.506C48.1754 23.506 49.2348 24.5419 49.2348 25.7985C49.2348 27.0975 48.201 28.1588 46.8853 28.1588ZM46.8853 27.6069C47.8764 27.6069 48.6709 26.8088 48.6709 25.8324C48.6709 24.8645 47.8849 24.0579 46.8939 24.0579C45.9028 24.0579 45.0997 24.8475 45.0997 25.8239C45.0997 26.7918 45.8857 27.6069 46.8853 27.6069ZM50.8245 23.5824V24.4909C51.0296 23.8711 51.6191 23.6079 52.2599 23.5824V24.1088C51.2688 24.1938 50.8245 24.7711 50.8245 25.722V27.5135H51.5764V28.04H49.5088V27.5135H50.2607V24.1088H49.5088V23.5824H50.8245ZM53.9203 21.9777V25.5692L55.5693 24.1088H54.8943V23.5824H57.0046V24.1088H56.2698L54.5867 25.6286L56.4749 27.5135H57.2865V28.04H55.0823V27.5135H55.7145L53.9203 25.7136V27.5135H54.6038V28.04H52.5875V27.5135H53.3565V22.5041H52.5875V21.9777H53.9203ZM58.8763 23.5824V27.5135H59.6281V28.04H57.5435V27.5135H58.3124V24.1088H57.5606V23.5824H58.8763ZM58.8763 21.9777V22.8522H58.3124V21.9777H58.8763ZM61.0786 23.5824V24.3636C61.3605 23.8117 61.9671 23.506 62.5822 23.506C63.0863 23.506 63.8381 23.7777 64.1286 24.3636C64.2397 24.5843 64.3764 24.9834 64.3764 25.5268V27.5135H65.1282V28.04H63.0607V27.5135H63.8125V25.7305C63.8125 25.3315 63.804 24.9494 63.5989 24.6013C63.3597 24.1853 62.8556 24.0579 62.4284 24.0579C62.0354 24.0579 61.6339 24.2277 61.3776 24.5249C61.0871 24.8645 61.0786 25.2466 61.0786 25.6626V27.5135H61.8304V28.04H59.7628V27.5135H60.5147V24.1088H59.7628V23.5824H61.0786ZM65.6932 28.5239H66.3425C66.6159 29.0758 67.2054 29.3984 67.8206 29.3984C68.2819 29.3984 68.7518 29.1862 69.0594 28.855C69.4439 28.456 69.5208 28.0739 69.5208 27.539V27.0635C69.1705 27.7513 68.487 28.1588 67.6924 28.1588C67.0517 28.1588 66.0948 27.7768 65.7189 27.0635C65.5651 26.7749 65.3857 26.3249 65.3857 25.8239C65.3857 25.289 65.5651 24.822 65.7701 24.5334C66.2229 23.8966 66.9491 23.506 67.7266 23.506C68.4955 23.506 69.1876 23.9051 69.5208 24.5334V23.5824H70.8365V24.1088H70.0846V27.4286C70.0846 28.1079 70.0077 28.6258 69.5293 29.1437C69.0765 29.6362 68.4443 29.8824 67.7864 29.8824C66.8979 29.8824 65.9923 29.4069 65.6932 28.5239ZM67.7693 27.6324C68.7689 27.6324 69.5635 26.8088 69.5635 25.8239C69.5635 24.839 68.7604 24.0239 67.7608 24.0239C66.7612 24.0239 65.9495 24.8475 65.9495 25.8409C65.9495 26.8258 66.7783 27.6324 67.7693 27.6324ZM74.9288 24.0919V27.5135H75.6978V28.04H73.6046V27.5135H74.365V24.0919H73.6046V23.5485H74.3564V23.4805C74.3735 22.9796 74.382 22.5636 74.7921 22.1985C75.0912 21.9268 75.4756 21.8419 75.8686 21.8164V22.3173C75.6465 22.3343 75.4244 22.3938 75.245 22.5381C74.9374 22.7673 74.9374 23.09 74.9288 23.4381V23.5485H75.6978V24.0919H74.9288ZM78.4984 28.1588C77.1997 28.1588 76.1489 27.1145 76.1489 25.8409C76.1489 24.5419 77.2083 23.506 78.5154 23.506C79.7884 23.506 80.8478 24.5419 80.8478 25.7985C80.8478 27.0975 79.8141 28.1588 78.4984 28.1588ZM78.4984 27.6069C79.4894 27.6069 80.284 26.8088 80.284 25.8324C80.284 24.8645 79.498 24.0579 78.5069 24.0579C77.5158 24.0579 76.7127 24.8475 76.7127 25.8239C76.7127 26.7918 77.4988 27.6069 78.4984 27.6069ZM82.4375 23.5824V24.4909C82.6426 23.8711 83.2321 23.6079 83.8728 23.5824V24.1088C82.8818 24.1938 82.4375 24.7711 82.4375 25.722V27.5135H83.1894V28.04H81.1218V27.5135H81.8736V24.1088H81.1218V23.5824H82.4375ZM90.9053 28.04V27.1145C90.5123 27.7852 89.8545 28.1588 89.077 28.1588C88.2568 28.1588 87.505 27.7598 87.112 27.1145C86.8899 26.7494 86.7361 26.3249 86.7532 25.8324C86.7532 25.1871 86.9411 24.89 87.1291 24.5588C87.4965 23.9136 88.2568 23.506 89.0685 23.506C89.8801 23.506 90.4953 23.8796 90.9053 24.5588V23.5824H92.2125V24.1088H91.4692V27.5135H92.2125V28.04H90.9053ZM89.1283 24.0579C88.1372 24.0579 87.317 24.856 87.317 25.8409C87.317 26.8003 88.1201 27.6154 89.1027 27.6154C90.1193 27.6154 90.9139 26.8173 90.9139 25.8239C90.9139 24.8475 90.1108 24.0579 89.1283 24.0579ZM99.355 23.5824V24.9239H98.8252C98.5006 24.3975 97.9111 24.0664 97.2874 24.0664C96.2963 24.0664 95.5189 24.8645 95.5189 25.8494C95.5189 26.8428 96.322 27.5984 97.3301 27.5984C97.9709 27.5984 98.6031 27.2418 98.868 26.6475H99.5002C99.167 27.573 98.2614 28.1588 97.2789 28.1588C96.0059 28.1588 94.955 27.106 94.955 25.8579C94.955 25.2211 95.2028 24.6353 95.6129 24.2192C96.04 23.7862 96.6039 23.506 97.2532 23.506C97.8855 23.506 98.4152 23.7607 98.8252 24.2192V23.5824H99.355ZM102.076 28.1588C100.778 28.1588 99.7269 27.1145 99.7269 25.8409C99.7269 24.5419 100.786 23.506 102.093 23.506C103.366 23.506 104.426 24.5419 104.426 25.7985C104.426 27.0975 103.392 28.1588 102.076 28.1588ZM102.076 27.6069C103.067 27.6069 103.862 26.8088 103.862 25.8324C103.862 24.8645 103.076 24.0579 102.085 24.0579C101.094 24.0579 100.291 24.8475 100.291 25.8239C100.291 26.7918 101.077 27.6069 102.076 27.6069ZM106.913 26.1041H104.794V25.5437H106.913V26.1041ZM109.594 28.1588C108.296 28.1588 107.245 27.1145 107.245 25.8409C107.245 24.5419 108.304 23.506 109.611 23.506C110.884 23.506 111.944 24.5419 111.944 25.7985C111.944 27.0975 110.91 28.1588 109.594 28.1588ZM109.594 27.6069C110.585 27.6069 111.38 26.8088 111.38 25.8324C111.38 24.8645 110.594 24.0579 109.603 24.0579C108.612 24.0579 107.809 24.8475 107.809 25.8239C107.809 26.7918 108.595 27.6069 109.594 27.6069ZM113.533 23.5824V24.5758C113.926 23.8796 114.584 23.506 115.387 23.506C116.105 23.506 116.891 23.8287 117.318 24.5758C117.489 24.873 117.686 25.272 117.686 25.8324C117.686 27.1145 116.669 28.1588 115.387 28.1588C114.627 28.1588 113.892 27.7683 113.533 27.0975V29.1692H114.285V29.6956H112.218V29.1692H112.969V24.1088H112.218V23.5824H113.533ZM115.319 27.6324C116.301 27.6324 117.122 26.8173 117.122 25.8324C117.122 24.7287 116.284 23.9815 115.353 24.0324C114.379 24.0834 113.525 24.7287 113.525 25.8239C113.525 26.8173 114.319 27.6324 115.319 27.6324ZM121.719 26.7918H122.317C121.941 27.6239 121.104 28.1588 120.181 28.1588C118.891 28.1588 117.84 27.1315 117.84 25.8579C117.84 24.5928 118.849 23.506 120.147 23.506C121.48 23.506 122.505 24.5334 122.505 25.8494V26.0192H118.404C118.456 26.9362 119.242 27.6579 120.164 27.6579C120.814 27.6579 121.395 27.3522 121.719 26.7918ZM118.404 25.5607H121.976C121.847 24.6522 121.053 24.0154 120.139 24.0154C119.276 24.0154 118.507 24.7202 118.404 25.5607ZM124.129 23.5824V24.4909C124.334 23.8711 124.924 23.6079 125.564 23.5824V24.1088C124.573 24.1938 124.129 24.7711 124.129 25.722V27.5135H124.881V28.04H122.813V27.5135H123.565V24.1088H122.813V23.5824H124.129ZM130.036 28.04V27.1145C129.643 27.7852 128.985 28.1588 128.207 28.1588C127.387 28.1588 126.635 27.7598 126.242 27.1145C126.02 26.7494 125.866 26.3249 125.883 25.8324C125.883 25.1871 126.071 24.89 126.259 24.5588C126.627 23.9136 127.387 23.506 128.199 23.506C129.01 23.506 129.625 23.8796 130.036 24.5588V23.5824H131.343V24.1088H130.599V27.5135H131.343V28.04H130.036ZM128.258 24.0579C127.267 24.0579 126.447 24.856 126.447 25.8409C126.447 26.8003 127.25 27.6154 128.233 27.6154C129.25 27.6154 130.044 26.8173 130.044 25.8239C130.044 24.8475 129.241 24.0579 128.258 24.0579ZM132.942 24.1088V27.5135H134.001V28.04H132.378V24.1088H131.515V23.5824H132.378V21.9777H132.942V23.5824H133.933V24.1088H132.942ZM135.602 23.5824V27.5135H136.354V28.04H134.269V27.5135H135.038V24.1088H134.286V23.5824H135.602ZM135.602 21.9777V22.8522H135.038V21.9777H135.602ZM141.05 24.1088L139.41 28.04H138.778L137.172 24.1088H136.42V23.5824H138.479V24.1088H137.795L139.103 27.3692L140.444 24.1088H139.726V23.5824H141.768V24.1088H141.05ZM145.815 26.7918H146.413C146.037 27.6239 145.2 28.1588 144.277 28.1588C142.987 28.1588 141.936 27.1315 141.936 25.8579C141.936 24.5928 142.944 23.506 144.243 23.506C145.576 23.506 146.601 24.5334 146.601 25.8494V26.0192H142.5C142.551 26.9362 143.337 27.6579 144.26 27.6579C144.909 27.6579 145.49 27.3522 145.815 26.7918ZM142.5 25.5607H146.071C145.943 24.6522 145.149 24.0154 144.234 24.0154C143.371 24.0154 142.603 24.7202 142.5 25.5607ZM150.786 21.9777V24.5758C151.154 23.9136 151.803 23.506 152.563 23.506C153.87 23.506 154.913 24.5419 154.913 25.8409C154.913 26.3249 154.742 26.7834 154.537 27.1145C154.221 27.6324 153.46 28.1588 152.632 28.1588C151.863 28.1588 151.171 27.7852 150.786 27.1145V28.04H149.47V27.5135H150.222V22.5041H149.47V21.9777H150.786ZM152.58 27.5984C153.563 27.5984 154.349 26.7918 154.349 25.8154C154.349 24.8475 153.554 24.0664 152.572 24.0664C151.555 24.0664 150.761 24.8305 150.761 25.8409C150.761 26.8428 151.581 27.5984 152.58 27.5984ZM157.443 28.1588C156.144 28.1588 155.093 27.1145 155.093 25.8409C155.093 24.5419 156.153 23.506 157.46 23.506C158.733 23.506 159.792 24.5419 159.792 25.7985C159.792 27.0975 158.758 28.1588 157.443 28.1588ZM157.443 27.6069C158.434 27.6069 159.228 26.8088 159.228 25.8324C159.228 24.8645 158.442 24.0579 157.451 24.0579C156.46 24.0579 155.657 24.8475 155.657 25.8239C155.657 26.7918 156.443 27.6069 157.443 27.6069ZM161.382 23.5824V24.4909C161.587 23.8711 162.176 23.6079 162.817 23.5824V24.1088C161.826 24.1938 161.382 24.7711 161.382 25.722V27.5135H162.134V28.04H160.066V27.5135H160.818V24.1088H160.066V23.5824H161.382ZM165.736 28.1588C164.438 28.1588 163.387 27.1145 163.387 25.8409C163.387 24.5419 164.446 23.506 165.753 23.506C167.026 23.506 168.086 24.5419 168.086 25.7985C168.086 27.0975 167.052 28.1588 165.736 28.1588ZM165.736 27.6069C166.727 27.6069 167.522 26.8088 167.522 25.8324C167.522 24.8645 166.736 24.0579 165.745 24.0579C164.754 24.0579 163.951 24.8475 163.951 25.8239C163.951 26.7918 164.737 27.6069 165.736 27.6069ZM172.315 28.04V27.2928C172.025 27.8362 171.461 28.1588 170.82 28.1588C170.162 28.1588 169.564 27.7428 169.291 27.2928C169.146 27.0551 169.06 26.7239 169.06 26.1975V24.1088H168.309V23.5824H169.624V25.9852C169.624 26.4013 169.633 26.8003 169.906 27.1569C170.171 27.5051 170.538 27.6664 170.983 27.6324C171.427 27.5984 171.769 27.4117 171.991 27.1485C172.298 26.7834 172.315 26.4607 172.315 26.0022V24.1088H171.564V23.5824H172.879V27.5135H173.64V28.04H172.315ZM174.115 28.5239H174.765C175.038 29.0758 175.628 29.3984 176.243 29.3984C176.704 29.3984 177.174 29.1862 177.481 28.855C177.866 28.456 177.943 28.0739 177.943 27.539V27.0635C177.593 27.7513 176.909 28.1588 176.114 28.1588C175.474 28.1588 174.517 27.7768 174.141 27.0635C173.987 26.7749 173.808 26.3249 173.808 25.8239C173.808 25.289 173.987 24.822 174.192 24.5334C174.645 23.8966 175.371 23.506 176.149 23.506C176.918 23.506 177.61 23.9051 177.943 24.5334V23.5824H179.259V24.1088H178.507V27.4286C178.507 28.1079 178.43 28.6258 177.951 29.1437C177.499 29.6362 176.866 29.8824 176.208 29.8824C175.32 29.8824 174.414 29.4069 174.115 28.5239ZM176.191 27.6324C177.191 27.6324 177.986 26.8088 177.986 25.8239C177.986 24.839 177.182 24.0239 176.183 24.0239C175.183 24.0239 174.372 24.8475 174.372 25.8409C174.372 26.8258 175.2 27.6324 176.191 27.6324ZM180.78 21.9777V24.4145C181.079 23.8541 181.618 23.506 182.267 23.506C182.805 23.506 183.258 23.7268 183.608 24.1343C184.001 24.5928 184.027 25.0937 184.027 25.6626V27.5135H184.779V28.04H182.711V27.5135H183.463V25.8919C183.463 25.4758 183.489 25.0513 183.267 24.6862C183.036 24.2871 182.6 24.0494 182.147 24.0494C181.754 24.0494 181.387 24.2022 181.131 24.4909C180.789 24.8815 180.78 25.2551 180.78 25.739V27.5135H181.532V28.04H179.465V27.5135H180.217V22.5041H179.465V21.9777H180.78Z" fill="#152536"/>
<defs>
<linearGradient id="paint0_linear_2573_13321" x1="14.6411" y1="0.599609" x2="14.6411" y2="13.1138" gradientUnits="userSpaceOnUse">
<stop stop-color="white"/>
<stop offset="0.816902" stop-color="white" stop-opacity="0.12"/>
</linearGradient>
</defs>
</svg>
